# xmcd CD database file
#
# Track frame offsets:
#	150
#	18905
#	60357
#
# Disc length: 4440 seconds
#
# Revision: 0
# Processed by: cddbd v1.5PL3 Copyright (c) Steve Scherf et al.
# Submitted via: CDex 1.50beta9
#
DISCID=17115603
DTITLE=ACIDMAN - リピート
DYEAR=2003
DGENRE=Rock
TTITLE0=波、白く
TTITLE1=リピート
TTITLE2=CCCD_DATE
EXTD=YEAR: 2003
EXTT0=
EXTT1=
EXTT2=
PLAYORDER=
